<svg width="494" height="460" viewBox="0 0 494 460" fill="none" xmlns="http://www.w3.org/2000/svg">
  <path
    d="M491.688 126.114C485.775 130.857 479.681 135.319 473.407 139.498C467.132 143.564 460.375 147.347 453.135 150.849C446.015 154.35 438.293 157.512 429.967 160.336C421.641 163.16 412.409 165.701 402.273 167.96C402.273 167.282 402.273 166.661 402.273 166.096C402.273 165.418 402.394 164.628 402.635 163.724C402.997 162.143 403.661 160.788 404.626 159.658C405.592 158.416 407.161 157.512 409.333 156.948C416.211 155.14 422.485 153.277 428.157 151.357C433.828 149.324 439.198 147.234 444.266 145.088C449.334 142.829 454.281 140.345 459.108 137.634C463.934 134.81 468.882 131.648 473.95 128.147C479.138 124.645 484.689 120.692 490.602 116.288L484.81 124.589L486.982 113.746L489.335 122.725C484.508 117.417 479.802 112.843 475.217 109.003C470.631 105.05 465.865 101.661 460.918 98.8377C455.97 95.9011 450.54 93.2469 444.628 90.8751C438.715 88.5032 432.018 86.1879 424.537 83.929C422.606 83.3643 421.399 82.5736 420.917 81.5571C420.434 80.4277 420.313 79.2418 420.555 77.9994C420.796 77.3217 420.977 76.7006 421.098 76.1358C421.339 75.4582 421.58 74.837 421.821 74.2722C433.406 77.2088 443.3 80.4842 451.506 84.0984C459.832 87.7126 467.011 91.7221 473.045 96.127C479.199 100.532 484.87 105.445 490.059 110.866C491.024 111.883 491.808 112.843 492.412 113.746C493.136 114.65 493.558 115.61 493.679 116.626C493.92 117.643 493.86 118.942 493.498 120.523C493.256 121.652 492.955 122.669 492.593 123.572C492.351 124.363 492.05 125.21 491.688 126.114Z"
    fill="#4C4F69"
  />
  <path
    d="M159.986 291.329C166.502 285.772 173.38 280.486 180.62 275.471C188.005 270.457 195.897 265.849 204.295 261.647C212.838 257.445 222.033 253.651 231.88 250.262C241.871 246.738 252.658 243.689 264.242 241.114C264.387 241.791 264.46 242.537 264.46 243.35C264.46 244.163 264.387 245.044 264.242 245.993C263.953 247.755 263.229 249.381 262.07 250.872C261.057 252.363 259.319 253.447 256.858 254.125C248.894 256.293 241.509 258.53 234.703 260.834C228.042 263.138 221.744 265.645 215.807 268.356C209.87 271.067 204.078 274.116 198.431 277.504C192.783 280.757 186.919 284.484 180.837 288.686C174.901 292.752 168.529 297.428 161.724 302.714L168.24 292.549L166.285 305.56L162.81 294.785C169.181 301.29 175.263 306.915 181.055 311.659C186.847 316.402 192.783 320.536 198.865 324.06C204.947 327.584 211.607 330.769 218.847 333.615C226.088 336.461 234.341 339.172 243.608 341.747C245.925 342.425 247.373 343.441 247.952 344.797C248.532 346.152 248.749 347.575 248.604 349.066C248.459 349.879 248.242 350.692 247.952 351.506C247.808 352.183 247.59 352.861 247.301 353.539C233.4 350.015 221.309 346.084 211.028 341.747C200.892 337.41 191.987 332.599 184.313 327.313C176.638 322.027 169.471 316.131 162.81 309.626C161.651 308.27 160.638 307.118 159.769 306.17C158.9 305.085 158.321 303.933 158.031 302.714C157.887 301.494 157.887 299.935 158.031 298.038C158.321 296.682 158.611 295.53 158.9 294.582C159.19 293.497 159.552 292.413 159.986 291.329Z"
    fill="#4C4F69"
  />
  <path
    d="M120.238 460C115.026 460 110.754 459.119 107.424 457.357C104.238 455.595 101.704 453.359 99.8215 450.648C98.0839 447.802 96.5635 444.82 95.2603 441.703C94.1019 438.586 92.9435 435.604 91.7851 432.758C90.6267 429.776 89.1063 427.269 87.2239 425.236C85.4863 423.067 83.0247 421.78 79.8391 421.373C75.3502 421.915 71.5854 423.88 68.5446 427.269C65.6486 430.521 63.2594 435.536 61.377 442.313C60.7978 444.752 60.3634 447.057 60.0738 449.225C59.929 451.258 60.0014 453.291 60.291 455.324L60.0738 456.951C58.6258 457.493 57.1054 457.831 55.5126 457.967C54.0646 458.103 52.5442 458.17 50.9514 458.17C47.621 458.17 45.3042 456.815 44.0009 454.104C42.6977 451.258 42.6253 447.328 43.7837 442.313L44.8698 438.45C46.897 430.996 49.6482 424.897 53.1234 420.153C56.5986 415.274 60.7254 411.615 65.5038 409.175C70.2822 406.735 75.495 405.516 81.1423 405.516C86.3551 405.516 90.5543 406.397 93.7399 408.158C96.9255 409.92 99.4595 412.224 101.342 415.071C103.224 417.781 104.745 420.695 105.903 423.813C107.062 426.93 108.22 429.979 109.378 432.961C110.537 435.807 111.985 438.247 113.722 440.28C115.605 442.313 118.139 443.6 121.324 444.143C125.813 443.6 129.506 441.703 132.402 438.45C135.442 435.062 137.904 429.979 139.786 423.203C140.51 420.763 140.945 418.527 141.09 416.494C141.234 414.325 141.162 412.224 140.872 410.192L141.09 408.565C142.682 408.023 144.203 407.684 145.651 407.549C147.244 407.413 148.764 407.345 150.212 407.345C153.687 407.345 156.077 408.768 157.38 411.615C158.683 414.325 158.683 418.188 157.38 423.203L156.294 427.065C154.266 434.384 151.515 440.483 148.04 445.362C144.565 450.242 140.438 453.901 135.66 456.341C131.026 458.78 125.886 460 120.238 460Z"
    fill="#1E66F5"
  />
  <path
    d="M250.474 460C245.261 460 240.99 459.119 237.659 457.357C234.474 455.595 231.94 453.359 230.057 450.648C228.319 447.802 226.799 444.82 225.496 441.703C224.337 438.586 223.179 435.604 222.021 432.758C220.862 429.776 219.342 427.269 217.459 425.236C215.722 423.067 213.26 421.78 210.075 421.373C205.586 421.915 201.821 423.88 198.78 427.269C195.884 430.521 193.495 435.536 191.613 442.313C191.033 444.752 190.599 447.057 190.309 449.225C190.165 451.258 190.237 453.291 190.527 455.324L190.309 456.951C188.861 457.493 187.341 457.831 185.748 457.967C184.3 458.103 182.78 458.17 181.187 458.17C177.857 458.17 175.54 456.815 174.237 454.104C172.933 451.258 172.861 447.328 174.019 442.313L175.105 438.45C177.133 430.996 179.884 424.897 183.359 420.153C186.834 415.274 190.961 411.615 195.739 409.175C200.518 406.735 205.731 405.516 211.378 405.516C216.591 405.516 220.79 406.397 223.975 408.158C227.161 409.92 229.695 412.224 231.577 415.071C233.46 417.781 234.98 420.695 236.139 423.813C237.297 426.93 238.456 429.979 239.614 432.961C240.772 435.807 242.22 438.247 243.958 440.28C245.84 442.313 248.374 443.6 251.56 444.143C256.049 443.6 259.741 441.703 262.637 438.45C265.678 435.062 268.14 429.979 270.022 423.203C270.746 420.763 271.18 418.527 271.325 416.494C271.47 414.325 271.398 412.224 271.108 410.192L271.325 408.565C272.918 408.023 274.438 407.684 275.886 407.549C277.479 407.413 279 407.345 280.448 407.345C283.923 407.345 286.312 408.768 287.615 411.615C288.918 414.325 288.918 418.188 287.615 423.203L286.529 427.065C284.502 434.384 281.751 440.483 278.276 445.362C274.8 450.242 270.674 453.901 265.895 456.341C261.262 458.78 256.121 460 250.474 460Z"
    fill="#1E66F5"
  />
  <path
    d="M380.71 460C375.497 460 371.225 459.119 367.895 457.357C364.709 455.595 362.175 453.359 360.293 450.648C358.555 447.802 357.035 444.82 355.731 441.703C354.573 438.586 353.415 435.604 352.256 432.758C351.098 429.776 349.577 427.269 347.695 425.236C345.957 423.067 343.496 421.78 340.31 421.373C335.821 421.915 332.057 423.88 329.016 427.269C326.12 430.521 323.731 435.536 321.848 442.313C321.269 444.752 320.835 447.057 320.545 449.225C320.4 451.258 320.473 453.291 320.762 455.324L320.545 456.951C319.097 457.493 317.577 457.831 315.984 457.967C314.536 458.103 313.015 458.17 311.422 458.17C308.092 458.17 305.775 456.815 304.472 454.104C303.169 451.258 303.096 447.328 304.255 442.313L305.341 438.45C307.368 430.996 310.119 424.897 313.595 420.153C317.07 415.274 321.197 411.615 325.975 409.175C330.753 406.735 335.966 405.516 341.613 405.516C346.826 405.516 351.025 406.397 354.211 408.158C357.397 409.92 359.931 412.224 361.813 415.071C363.695 417.781 365.216 420.695 366.374 423.813C367.533 426.93 368.691 429.979 369.849 432.961C371.008 435.807 372.456 438.247 374.193 440.28C376.076 442.313 378.61 443.6 381.796 444.143C386.284 443.6 389.977 441.703 392.873 438.45C395.914 435.062 398.375 429.979 400.258 423.203C400.982 420.763 401.416 418.527 401.561 416.494C401.706 414.325 401.633 412.224 401.344 410.192L401.561 408.565C403.154 408.023 404.674 407.684 406.122 407.549C407.715 407.413 409.235 407.345 410.683 407.345C414.158 407.345 416.548 408.768 417.851 411.615C419.154 414.325 419.154 418.188 417.851 423.203L416.765 427.065C414.738 434.384 411.986 440.483 408.511 445.362C405.036 450.242 400.909 453.901 396.131 456.341C391.497 458.78 386.357 460 380.71 460Z"
    fill="#1E66F5"
  />
  <path
    d="M386.671 183.986C385.658 184.935 384.572 185.613 383.413 186.019C382.4 186.562 381.241 186.833 379.938 186.833C378.056 186.833 376.246 186.765 374.508 186.629C372.77 186.494 371.105 186.291 369.512 186.019C367.92 185.884 366.327 185.681 364.734 185.41V183.173C374.001 175.041 381.676 166.232 387.757 156.744C393.839 147.392 398.4 137.431 401.441 126.859C404.482 116.288 406.002 105.309 406.002 93.9246V92.7048C406.002 81.1844 404.482 70.2062 401.441 59.7702C398.4 49.3341 393.766 39.4402 387.54 30.0884C381.458 20.6011 373.784 11.7914 364.517 3.6594V1.42309C366.254 1.15203 367.92 0.948733 369.512 0.813201C371.105 0.54213 372.77 0.338829 374.508 0.203297C376.246 0.0677658 378.056 0 379.938 0C381.241 0 382.4 0.203297 383.413 0.609892C384.572 1.01649 385.658 1.76193 386.671 2.8462C395.07 10.7071 402.092 19.3813 407.74 28.8686C413.532 38.3559 417.803 48.4532 420.555 59.1603C423.306 69.8674 424.681 80.9811 424.681 92.5015V93.9246C424.681 105.58 423.306 116.762 420.555 127.469C417.803 138.176 413.532 148.273 407.74 157.761C402.092 167.248 395.07 175.99 386.671 183.986Z"
    fill="#DF8E1D"
  />
  <path
    d="M385.585 386.676C385.151 387.219 384.499 387.625 383.63 387.896C382.906 388.167 382.11 388.303 381.241 388.303C379.504 388.303 377.694 388.303 375.811 388.303C373.929 388.303 372.046 388.303 370.164 388.303C368.426 388.303 366.616 388.303 364.734 388.303V385.457C373.856 377.46 381.458 368.718 387.54 359.231C393.622 349.879 398.183 339.985 401.224 329.549C404.409 319.113 406.002 308.203 406.002 296.818V295.395C406.002 284.146 404.409 273.371 401.224 263.07C398.183 252.634 393.549 242.74 387.323 233.388C381.241 224.037 373.567 215.295 364.3 207.163V204.316C366.327 204.316 368.282 204.316 370.164 204.316C372.046 204.316 373.856 204.316 375.594 204.316C377.476 204.316 379.359 204.316 381.241 204.316C382.11 204.316 382.906 204.452 383.63 204.723C384.499 204.859 385.151 205.265 385.585 205.943C394.273 213.939 401.441 222.749 407.088 232.372C412.88 241.859 417.152 251.889 419.903 262.46C422.654 273.032 424.03 284.01 424.03 295.395V296.818C424.03 308.203 422.654 319.249 419.903 329.956C417.152 340.527 412.88 350.557 407.088 360.044C401.441 369.667 394.273 378.544 385.585 386.676Z"
    fill="#DF8E1D"
  />
  <path
    d="M251.717 3.0495C252.586 2.37183 253.382 1.96523 254.106 1.8297C254.975 1.55863 255.844 1.42309 256.713 1.42309C259.319 1.42309 261.926 1.42309 264.532 1.42309C267.283 1.42309 270.107 1.42309 273.003 1.42309C275.899 1.42309 278.722 1.42309 281.474 1.42309L281.039 4.6759C270.179 12.6724 260.767 21.211 252.803 30.2917C244.839 39.2369 238.396 48.6564 233.472 58.5504C228.549 68.3088 225.219 78.4738 223.481 89.0454L222.83 92.2982C220.947 103.141 220.658 113.78 221.961 124.216C223.264 134.517 226.088 144.343 230.432 153.695C234.776 163.047 240.64 171.585 248.025 179.311L247.373 182.563C244.622 182.563 242.016 182.563 239.554 182.563C237.237 182.563 234.993 182.563 232.821 182.563C230.649 182.563 228.187 182.563 225.436 182.563C224.567 182.563 223.771 182.428 223.047 182.157C222.468 182.021 221.888 181.615 221.309 180.937C214.503 173.347 209.073 164.741 205.019 155.118C201.109 145.495 198.575 135.33 197.417 124.623C196.259 113.916 196.621 103.141 198.503 92.2982L199.155 89.0454C200.892 78.4738 204.005 68.1055 208.494 57.9405C213.128 47.6399 218.992 37.8816 226.088 28.6653C233.328 19.3135 241.871 10.7749 251.717 3.0495Z"
    fill="#DF8E1D"
  />
  <path
    d="M92.5091 206.553C94.1019 205.468 95.5499 204.723 96.8531 204.316C98.1563 203.774 99.6043 203.503 101.197 203.503C103.369 203.503 105.541 203.639 107.713 203.91C109.885 204.045 112.057 204.249 114.229 204.52C116.401 204.791 118.428 205.062 120.311 205.333L119.659 207.773C108.654 215.769 99.0251 224.308 90.7715 233.388C82.5179 242.469 75.7123 252.024 70.3546 262.054C64.997 272.083 61.2322 282.519 59.0602 293.362L58.4086 296.208C56.0918 307.457 55.2954 318.435 56.0194 329.143C56.8882 339.85 59.2774 349.947 63.187 359.434C67.0966 368.922 72.5266 377.528 79.4771 385.253L78.8255 387.693C76.9431 387.964 75.0606 388.167 73.1782 388.303C71.4406 388.574 69.703 388.777 67.9654 388.913C66.2278 389.048 64.273 389.116 62.101 389.116C60.653 389.116 59.3498 388.845 58.1914 388.303C57.1778 387.761 56.1642 386.948 55.1506 385.863C48.9242 378.409 44.0009 369.87 40.3809 360.248C36.9057 350.625 34.8061 340.324 34.0821 329.346C33.3581 318.368 34.1545 307.322 36.4713 296.208L37.1229 293.159C39.4397 282.18 43.0597 271.473 47.983 261.037C53.051 250.601 59.2774 240.775 66.6622 231.559C74.1918 222.207 82.8075 213.872 92.5091 206.553Z"
    fill="#DF8E1D"
  />
  <path
    d="M376.933 103.242C375.485 103.694 373.977 104.09 372.408 104.428C370.96 104.654 369.452 104.88 367.883 105.106C366.435 105.332 364.927 105.501 363.358 105.614C361.79 105.727 360.281 105.784 358.833 105.784C352.559 105.784 347.853 104.824 344.715 102.904C341.699 100.871 340.432 97.9906 340.914 94.2634L343.086 71.2227C344.534 70.771 345.982 70.4321 347.43 70.2062C348.878 69.8674 350.387 69.585 351.955 69.3592C353.524 69.1333 355.032 68.9639 356.48 68.8509C358.049 68.738 359.557 68.6815 361.005 68.6815C367.521 68.6815 372.227 69.6415 375.123 71.5616C378.14 73.3687 379.407 76.1923 378.924 80.0324L376.933 103.242Z"
    fill="#4C4F69"
  />
</svg>
