<svg width="500" height="500" viewBox="0 0 500 500" fill="none" xmlns="http://www.w3.org/2000/svg">
<path d="M443.421 173.215C439.051 176.721 434.547 180.018 429.909 183.107C425.271 186.112 420.277 188.909 414.926 191.497C409.663 194.085 403.955 196.422 397.801 198.509C391.647 200.596 384.824 202.474 377.333 204.144C377.333 203.643 377.333 203.184 377.333 202.767C377.333 202.266 377.422 201.681 377.6 201.014C377.868 199.845 378.358 198.843 379.072 198.008C379.785 197.09 380.945 196.422 382.55 196.005C387.634 194.669 392.272 193.292 396.464 191.872C400.655 190.37 404.624 188.825 408.37 187.239C412.116 185.57 415.773 183.733 419.34 181.73C422.908 179.643 426.565 177.305 430.311 174.717C434.146 172.129 438.248 169.207 442.619 165.952L438.338 172.088L439.943 164.073L441.682 170.71C438.115 166.786 434.636 163.406 431.247 160.567C427.858 157.645 424.335 155.141 420.678 153.054C417.022 150.883 413.008 148.922 408.638 147.169C404.268 145.415 399.318 143.704 393.788 142.034C392.361 141.617 391.469 141.033 391.112 140.281C390.755 139.447 390.666 138.57 390.845 137.652C391.023 137.151 391.157 136.692 391.246 136.274C391.424 135.773 391.603 135.314 391.781 134.897C400.343 137.067 407.657 139.488 413.722 142.16C419.876 144.831 425.182 147.795 429.642 151.05C434.19 154.306 438.382 157.938 442.217 161.945C442.931 162.696 443.511 163.406 443.957 164.073C444.492 164.741 444.804 165.451 444.893 166.202C445.071 166.953 445.027 167.913 444.759 169.082C444.581 169.917 444.358 170.668 444.09 171.336C443.912 171.921 443.689 172.547 443.421 173.215Z" fill="#4C4F69"/>
<path d="M198.251 295.33C203.067 291.223 208.151 287.316 213.502 283.609C218.96 279.903 224.793 276.497 231.001 273.391C237.315 270.286 244.111 267.481 251.389 264.976C258.774 262.372 266.748 260.118 275.31 258.214C275.417 258.715 275.47 259.266 275.47 259.867C275.47 260.468 275.417 261.12 275.31 261.821C275.096 263.123 274.56 264.325 273.704 265.427C272.955 266.529 271.671 267.331 269.851 267.831C263.965 269.434 258.506 271.087 253.476 272.79C248.553 274.493 243.897 276.346 239.509 278.35C235.121 280.354 230.84 282.608 226.666 285.112C222.492 287.516 218.158 290.271 213.662 293.377C209.274 296.382 204.565 299.838 199.535 303.745L204.351 296.232L202.906 305.849L200.338 297.884C205.047 302.693 209.542 306.85 213.823 310.357C218.104 313.863 222.492 316.918 226.987 319.523C231.482 322.127 236.406 324.481 241.757 326.585C247.108 328.689 253.209 330.692 260.058 332.596C261.771 333.097 262.841 333.848 263.269 334.85C263.697 335.852 263.858 336.903 263.751 338.005C263.644 338.606 263.483 339.207 263.269 339.809C263.162 340.309 263.002 340.81 262.788 341.311C252.513 338.707 243.576 335.801 235.977 332.596C228.486 329.39 221.903 325.834 216.231 321.927C210.559 318.02 205.261 313.662 200.338 308.854C199.481 307.852 198.732 307.001 198.09 306.299C197.448 305.498 197.02 304.646 196.806 303.745C196.699 302.843 196.699 301.691 196.806 300.289C197.02 299.287 197.234 298.435 197.448 297.734C197.662 296.933 197.93 296.131 198.251 295.33Z" fill="#4C4F69"/>
<path d="M168.872 420C165.019 420 161.862 419.349 159.4 418.047C157.045 416.744 155.172 415.091 153.781 413.088C152.497 410.984 151.373 408.78 150.41 406.476C149.554 404.172 148.697 401.968 147.841 399.864C146.985 397.661 145.861 395.807 144.47 394.305C143.185 392.702 141.366 391.75 139.011 391.45C135.694 391.85 132.911 393.303 130.663 395.807C128.523 398.212 126.757 401.918 125.366 406.927C124.937 408.73 124.616 410.433 124.402 412.036C124.295 413.539 124.349 415.041 124.563 416.544L124.402 417.746C123.332 418.147 122.208 418.397 121.031 418.497C119.961 418.598 118.837 418.648 117.66 418.648C115.198 418.648 113.486 417.646 112.522 415.642C111.559 413.539 111.506 410.633 112.362 406.927L113.165 404.072C114.663 398.562 116.696 394.054 119.265 390.548C121.834 386.942 124.884 384.237 128.416 382.434C131.948 380.631 135.801 379.729 139.975 379.729C143.828 379.729 146.931 380.38 149.286 381.682C151.641 382.985 153.514 384.688 154.905 386.791C156.296 388.795 157.42 390.949 158.276 393.253C159.132 395.557 159.989 397.811 160.845 400.015C161.701 402.118 162.771 403.922 164.056 405.424C165.447 406.927 167.32 407.879 169.675 408.279C172.992 407.879 175.722 406.476 177.862 404.072C180.11 401.567 181.929 397.811 183.32 392.802C183.856 390.999 184.177 389.346 184.284 387.843C184.391 386.24 184.337 384.688 184.123 383.185L184.284 381.983C185.461 381.582 186.585 381.332 187.655 381.232C188.832 381.131 189.956 381.081 191.026 381.081C193.595 381.081 195.361 382.133 196.324 384.237C197.287 386.24 197.287 389.095 196.324 392.802L195.521 395.657C194.023 401.067 191.99 405.575 189.421 409.181C186.852 412.787 183.802 415.492 180.27 417.295C176.845 419.098 173.046 420 168.872 420Z" fill="#1E66F5"/>
<path d="M265.133 420C261.28 420 258.123 419.349 255.661 418.047C253.306 416.744 251.434 415.091 250.042 413.088C248.758 410.984 247.634 408.78 246.671 406.476C245.815 404.172 244.958 401.968 244.102 399.864C243.246 397.661 242.122 395.807 240.731 394.305C239.447 392.702 237.627 391.75 235.273 391.45C231.955 391.85 229.172 393.303 226.924 395.807C224.784 398.212 223.018 401.918 221.627 406.927C221.199 408.73 220.877 410.433 220.663 412.036C220.556 413.539 220.61 415.041 220.824 416.544L220.663 417.746C219.593 418.147 218.469 418.397 217.292 418.497C216.222 418.598 215.098 418.648 213.921 418.648C211.459 418.648 209.747 417.646 208.783 415.642C207.82 413.539 207.767 410.633 208.623 406.927L209.426 404.072C210.924 398.562 212.958 394.054 215.526 390.548C218.095 386.942 221.145 384.237 224.677 382.434C228.209 380.631 232.062 379.729 236.236 379.729C240.089 379.729 243.192 380.38 245.547 381.682C247.902 382.985 249.775 384.688 251.166 386.791C252.557 388.795 253.681 390.949 254.537 393.253C255.394 395.557 256.25 397.811 257.106 400.015C257.962 402.118 259.032 403.922 260.317 405.424C261.708 406.927 263.581 407.879 265.936 408.279C269.253 407.879 271.983 406.476 274.123 404.072C276.371 401.567 278.19 397.811 279.581 392.802C280.117 390.999 280.438 389.346 280.545 387.843C280.652 386.24 280.598 384.688 280.384 383.185L280.545 381.983C281.722 381.582 282.846 381.332 283.916 381.232C285.093 381.131 286.217 381.081 287.287 381.081C289.856 381.081 291.622 382.133 292.585 384.237C293.548 386.24 293.548 389.095 292.585 392.802L291.782 395.657C290.284 401.067 288.251 405.575 285.682 409.181C283.113 412.787 280.063 415.492 276.531 417.295C273.106 419.098 269.307 420 265.133 420Z" fill="#1E66F5"/>
<path d="M361.394 420C357.541 420 354.384 419.349 351.922 418.047C349.568 416.744 347.695 415.091 346.303 413.088C345.019 410.984 343.895 408.78 342.932 406.476C342.076 404.172 341.219 401.968 340.363 399.864C339.507 397.661 338.383 395.807 336.992 394.305C335.708 392.702 333.888 391.75 331.534 391.45C328.216 391.85 325.433 393.303 323.186 395.807C321.045 398.212 319.279 401.918 317.888 406.927C317.46 408.73 317.139 410.433 316.924 412.036C316.817 413.539 316.871 415.041 317.085 416.544L316.924 417.746C315.854 418.147 314.73 418.397 313.553 418.497C312.483 418.598 311.359 418.648 310.182 418.648C307.72 418.648 306.008 417.646 305.045 415.642C304.081 413.539 304.028 410.633 304.884 406.927L305.687 404.072C307.185 398.562 309.219 394.054 311.787 390.548C314.356 386.942 317.406 384.237 320.938 382.434C324.47 380.631 328.323 379.729 332.497 379.729C336.35 379.729 339.454 380.38 341.808 381.682C344.163 382.985 346.036 384.688 347.427 386.791C348.818 388.795 349.942 390.949 350.798 393.253C351.655 395.557 352.511 397.811 353.367 400.015C354.223 402.118 355.293 403.922 356.578 405.424C357.969 406.927 359.842 407.879 362.197 408.279C365.515 407.879 368.244 406.476 370.384 404.072C372.632 401.567 374.451 397.811 375.843 392.802C376.378 390.999 376.699 389.346 376.806 387.843C376.913 386.24 376.859 384.688 376.645 383.185L376.806 381.983C377.983 381.582 379.107 381.332 380.177 381.232C381.354 381.131 382.478 381.081 383.548 381.081C386.117 381.081 387.883 382.133 388.846 384.237C389.809 386.24 389.809 389.095 388.846 392.802L388.044 395.657C386.545 401.067 384.512 405.575 381.943 409.181C379.374 412.787 376.324 415.492 372.792 417.295C369.367 419.098 365.568 420 361.394 420Z" fill="#1E66F5"/>
<path d="M365.8 215.99C365.051 216.691 364.249 217.192 363.392 217.493C362.643 217.893 361.787 218.094 360.824 218.094C359.432 218.094 358.095 218.044 356.81 217.943C355.526 217.843 354.295 217.693 353.118 217.493C351.941 217.392 350.763 217.242 349.586 217.042V215.389C356.436 209.378 362.108 202.867 366.603 195.854C371.098 188.942 374.47 181.579 376.717 173.765C378.965 165.952 380.089 157.837 380.089 149.423V148.521C380.089 140.006 378.965 131.892 376.717 124.178C374.47 116.464 371.045 109.151 366.443 102.239C361.948 95.2269 356.275 88.7154 349.425 82.7048V81.0519C350.71 80.8515 351.941 80.7012 353.118 80.6011C354.295 80.4007 355.526 80.2504 356.81 80.1503C358.095 80.0501 359.432 80 360.824 80C361.787 80 362.643 80.1503 363.392 80.4508C364.249 80.7513 365.051 81.3023 365.8 82.1037C372.008 87.914 377.199 94.3253 381.373 101.338C385.654 108.35 388.811 115.813 390.845 123.727C392.878 131.641 393.895 139.856 393.895 148.371V149.423C393.895 158.038 392.878 166.302 390.845 174.216C388.811 182.13 385.654 189.593 381.373 196.606C377.199 203.618 372.008 210.08 365.8 215.99Z" fill="#DF8E1D"/>
<path d="M364.998 365.804C364.677 366.205 364.195 366.506 363.553 366.706C363.018 366.906 362.429 367.006 361.787 367.006C360.503 367.006 359.165 367.006 357.773 367.006C356.382 367.006 354.991 367.006 353.599 367.006C352.315 367.006 350.977 367.006 349.586 367.006V364.903C356.329 358.992 361.948 352.531 366.443 345.519C370.938 338.606 374.309 331.293 376.557 323.58C378.911 315.866 380.089 307.802 380.089 299.387V298.335C380.089 290.021 378.911 282.057 376.557 274.443C374.309 266.73 370.884 259.417 366.282 252.504C361.787 245.592 356.115 239.131 349.265 233.12V231.016C350.763 231.016 352.208 231.016 353.599 231.016C354.991 231.016 356.329 231.016 357.613 231.016C359.004 231.016 360.396 231.016 361.787 231.016C362.429 231.016 363.018 231.117 363.553 231.317C364.195 231.417 364.677 231.718 364.998 232.219C371.419 238.129 376.717 244.641 380.891 251.753C385.172 258.765 388.33 266.179 390.363 273.992C392.397 281.806 393.413 289.92 393.413 298.335V299.387C393.413 307.802 392.397 315.966 390.363 323.88C388.33 331.694 385.172 339.107 380.891 346.12C376.717 353.232 371.419 359.794 364.998 365.804Z" fill="#DF8E1D"/>
<path d="M266.052 82.254C266.694 81.7531 267.283 81.4526 267.818 81.3524C268.46 81.152 269.102 81.0519 269.744 81.0519C271.671 81.0519 273.597 81.0519 275.524 81.0519C277.557 81.0519 279.644 81.0519 281.785 81.0519C283.925 81.0519 286.012 81.0519 288.046 81.0519L287.725 83.4561C279.698 89.3665 272.741 95.6777 266.855 102.39C260.968 109.001 256.205 115.963 252.566 123.276C248.928 130.489 246.466 138.002 245.182 145.816L244.7 148.22C243.309 156.235 243.095 164.098 244.058 171.812C245.021 179.425 247.108 186.688 250.319 193.6C253.53 200.513 257.864 206.824 263.323 212.534L262.841 214.938C260.808 214.938 258.881 214.938 257.062 214.938C255.349 214.938 253.69 214.938 252.085 214.938C250.479 214.938 248.66 214.938 246.627 214.938C245.984 214.938 245.396 214.838 244.861 214.638C244.432 214.537 244.004 214.237 243.576 213.736C238.546 208.126 234.533 201.765 231.536 194.652C228.646 187.54 226.773 180.027 225.917 172.113C225.061 164.199 225.328 156.235 226.72 148.22L227.201 145.816C228.486 138.002 230.787 130.339 234.104 122.826C237.529 115.212 241.864 107.999 247.108 101.187C252.459 94.2752 258.774 87.964 266.052 82.254Z" fill="#DF8E1D"/>
<path d="M148.376 232.669C149.554 231.868 150.624 231.317 151.587 231.016C152.55 230.616 153.621 230.415 154.798 230.415C156.403 230.415 158.009 230.516 159.614 230.716C161.219 230.816 162.825 230.966 164.43 231.167C166.036 231.367 167.534 231.567 168.925 231.768L168.444 233.571C160.31 239.481 153.192 245.793 147.092 252.504C140.991 259.216 135.961 266.279 132.001 273.692C128.041 281.105 125.259 288.818 123.653 296.833L123.172 298.936C121.459 307.251 120.87 315.365 121.406 323.279C122.048 331.193 123.814 338.656 126.703 345.669C129.593 352.681 133.607 359.042 138.744 364.753L138.262 366.556C136.871 366.756 135.48 366.906 134.088 367.006C132.804 367.207 131.52 367.357 130.235 367.457C128.951 367.557 127.506 367.608 125.901 367.608C124.83 367.608 123.867 367.407 123.011 367.006C122.262 366.606 121.513 366.005 120.763 365.203C116.161 359.694 112.522 353.382 109.847 346.27C107.278 339.157 105.726 331.544 105.191 323.43C104.656 315.315 105.245 307.151 106.957 298.936L107.439 296.682C109.151 288.568 111.827 280.654 115.466 272.94C119.212 265.227 123.814 257.964 129.272 251.152C134.837 244.24 141.206 238.079 148.376 232.669Z" fill="#DF8E1D"/>
<path d="M358.603 156.31C357.533 156.644 356.418 156.936 355.258 157.186C354.188 157.353 353.073 157.52 351.914 157.687C350.844 157.854 349.729 157.979 348.569 158.063C347.41 158.146 346.295 158.188 345.225 158.188C340.587 158.188 337.108 157.478 334.79 156.059C332.56 154.557 331.623 152.428 331.98 149.673L333.586 132.643C334.656 132.309 335.726 132.059 336.796 131.892C337.867 131.641 338.981 131.432 340.141 131.265C341.3 131.099 342.415 130.973 343.485 130.89C344.645 130.806 345.76 130.765 346.83 130.765C351.646 130.765 355.125 131.474 357.265 132.893C359.495 134.229 360.431 136.316 360.075 139.154L358.603 156.31Z" fill="#4C4F69"/>
</svg>
