<svg width="500" height="500" viewBox="0 0 500 500" fill="none" xmlns="http://www.w3.org/2000/svg">
<path d="M418.421 173.214C414.051 176.721 409.547 180.018 404.909 183.107C400.271 186.112 395.277 188.909 389.926 191.497C384.663 194.085 378.955 196.422 372.801 198.509C366.647 200.596 359.824 202.474 352.333 204.144C352.333 203.643 352.333 203.184 352.333 202.767C352.333 202.266 352.422 201.681 352.6 201.014C352.868 199.845 353.358 198.843 354.072 198.008C354.785 197.09 355.945 196.422 357.55 196.005C362.634 194.669 367.272 193.292 371.464 191.872C375.655 190.37 379.624 188.825 383.37 187.239C387.116 185.57 390.773 183.733 394.34 181.73C397.908 179.643 401.565 177.305 405.311 174.717C409.146 172.129 413.248 169.207 417.619 165.952L413.338 172.088L414.943 164.073L416.682 170.71C413.115 166.786 409.636 163.406 406.247 160.567C402.858 157.645 399.335 155.141 395.678 153.054C392.022 150.883 388.008 148.922 383.638 147.169C379.268 145.415 374.318 143.704 368.788 142.034C367.361 141.617 366.469 141.033 366.112 140.281C365.755 139.447 365.666 138.57 365.845 137.652C366.023 137.151 366.157 136.692 366.246 136.274C366.424 135.773 366.603 135.314 366.781 134.897C375.343 137.067 382.657 139.488 388.722 142.16C394.876 144.831 400.182 147.795 404.642 151.05C409.19 154.306 413.382 157.938 417.217 161.945C417.931 162.696 418.511 163.406 418.957 164.073C419.492 164.741 419.804 165.451 419.893 166.202C420.071 166.953 420.027 167.913 419.759 169.082C419.581 169.917 419.358 170.668 419.09 171.336C418.912 171.921 418.689 172.547 418.421 173.214Z" fill="#C6D0F5"/>
<path d="M173.251 295.33C178.067 291.223 183.151 287.316 188.502 283.609C193.96 279.903 199.793 276.497 206.001 273.391C212.315 270.286 219.111 267.481 226.389 264.976C233.774 262.372 241.747 260.118 250.31 258.214C250.417 258.715 250.47 259.266 250.47 259.867C250.47 260.468 250.417 261.12 250.31 261.821C250.096 263.123 249.56 264.325 248.704 265.427C247.955 266.529 246.671 267.331 244.851 267.831C238.965 269.434 233.506 271.087 228.476 272.79C223.553 274.493 218.897 276.346 214.509 278.35C210.121 280.354 205.84 282.608 201.666 285.112C197.492 287.516 193.158 290.271 188.662 293.377C184.274 296.382 179.565 299.838 174.535 303.745L179.351 296.232L177.906 305.849L175.338 297.884C180.047 302.693 184.542 306.85 188.823 310.357C193.104 313.863 197.492 316.918 201.987 319.523C206.482 322.127 211.406 324.481 216.757 326.585C222.108 328.689 228.209 330.692 235.058 332.596C236.771 333.097 237.841 333.848 238.269 334.85C238.697 335.852 238.858 336.903 238.751 338.005C238.644 338.606 238.483 339.207 238.269 339.808C238.162 340.309 238.002 340.81 237.788 341.311C227.513 338.707 218.576 335.801 210.977 332.596C203.486 329.39 196.903 325.834 191.231 321.927C185.559 318.02 180.261 313.662 175.338 308.854C174.481 307.852 173.732 307.001 173.09 306.299C172.448 305.498 172.02 304.646 171.806 303.745C171.699 302.843 171.699 301.691 171.806 300.289C172.02 299.287 172.234 298.435 172.448 297.734C172.662 296.933 172.93 296.131 173.251 295.33Z" fill="#C6D0F5"/>
<path d="M143.872 420C140.019 420 136.862 419.349 134.4 418.047C132.045 416.744 130.172 415.091 128.781 413.088C127.497 410.984 126.373 408.78 125.41 406.476C124.554 404.172 123.697 401.968 122.841 399.864C121.985 397.661 120.861 395.807 119.47 394.305C118.185 392.702 116.366 391.75 114.011 391.45C110.694 391.85 107.911 393.303 105.663 395.807C103.523 398.212 101.757 401.918 100.366 406.927C99.9375 408.73 99.6164 410.433 99.4024 412.036C99.2953 413.539 99.3488 415.041 99.5629 416.544L99.4024 417.746C98.3321 418.147 97.2083 418.397 96.031 418.497C94.9608 418.598 93.837 418.648 92.6597 418.648C90.1981 418.648 88.4857 417.646 87.5224 415.642C86.5592 413.539 86.5057 410.633 87.3619 406.927L88.1646 404.072C89.663 398.562 91.6965 394.054 94.2651 390.548C96.8337 386.942 99.884 384.237 103.416 382.434C106.948 380.631 110.801 379.729 114.975 379.729C118.828 379.729 121.931 380.38 124.286 381.682C126.641 382.985 128.514 384.688 129.905 386.791C131.296 388.795 132.42 390.949 133.276 393.253C134.132 395.557 134.989 397.811 135.845 400.015C136.701 402.118 137.771 403.922 139.056 405.424C140.447 406.927 142.32 407.879 144.675 408.279C147.992 407.879 150.722 406.476 152.862 404.072C155.11 401.567 156.929 397.811 158.32 392.802C158.856 390.999 159.177 389.346 159.284 387.843C159.391 386.24 159.337 384.688 159.123 383.185L159.284 381.983C160.461 381.582 161.585 381.332 162.655 381.232C163.832 381.131 164.956 381.081 166.026 381.081C168.595 381.081 170.361 382.133 171.324 384.237C172.287 386.24 172.287 389.095 171.324 392.802L170.521 395.657C169.023 401.067 166.99 405.575 164.421 409.181C161.852 412.787 158.802 415.492 155.27 417.295C151.845 419.098 148.046 420 143.872 420Z" fill="#8CAAEE"/>
<path d="M240.133 420C236.28 420 233.123 419.349 230.661 418.047C228.306 416.744 226.434 415.091 225.042 413.088C223.758 410.984 222.634 408.78 221.671 406.476C220.815 404.172 219.958 401.968 219.102 399.864C218.246 397.661 217.122 395.807 215.731 394.305C214.447 392.702 212.627 391.75 210.273 391.45C206.955 391.85 204.172 393.303 201.924 395.807C199.784 398.212 198.018 401.918 196.627 406.927C196.199 408.73 195.877 410.433 195.663 412.036C195.556 413.539 195.61 415.041 195.824 416.544L195.663 417.746C194.593 418.147 193.469 418.397 192.292 418.497C191.222 418.598 190.098 418.648 188.921 418.648C186.459 418.648 184.747 417.646 183.783 415.642C182.82 413.539 182.767 410.633 183.623 406.927L184.426 404.072C185.924 398.562 187.958 394.054 190.526 390.548C193.095 386.942 196.145 384.237 199.677 382.434C203.209 380.631 207.062 379.729 211.236 379.729C215.089 379.729 218.192 380.38 220.547 381.682C222.902 382.985 224.775 384.688 226.166 386.791C227.557 388.795 228.681 390.949 229.537 393.253C230.394 395.557 231.25 397.811 232.106 400.015C232.962 402.118 234.032 403.922 235.317 405.424C236.708 406.927 238.581 407.879 240.936 408.279C244.253 407.879 246.983 406.476 249.123 404.072C251.371 401.567 253.19 397.811 254.581 392.802C255.117 390.999 255.438 389.346 255.545 387.843C255.652 386.24 255.598 384.688 255.384 383.185L255.545 381.983C256.722 381.582 257.846 381.332 258.916 381.232C260.093 381.131 261.217 381.081 262.287 381.081C264.856 381.081 266.622 382.133 267.585 384.237C268.548 386.24 268.548 389.095 267.585 392.802L266.782 395.657C265.284 401.067 263.251 405.575 260.682 409.181C258.113 412.787 255.063 415.492 251.531 417.295C248.106 419.098 244.307 420 240.133 420Z" fill="#8CAAEE"/>
<path d="M336.394 420C332.541 420 329.384 419.349 326.922 418.047C324.568 416.744 322.695 415.091 321.303 413.088C320.019 410.984 318.895 408.78 317.932 406.476C317.076 404.172 316.219 401.968 315.363 399.864C314.507 397.661 313.383 395.807 311.992 394.305C310.708 392.702 308.888 391.75 306.534 391.45C303.216 391.85 300.433 393.303 298.186 395.807C296.045 398.212 294.279 401.918 292.888 406.927C292.46 408.73 292.139 410.433 291.924 412.036C291.817 413.539 291.871 415.041 292.085 416.544L291.924 417.746C290.854 418.147 289.73 418.397 288.553 418.497C287.483 418.598 286.359 418.648 285.182 418.648C282.72 418.648 281.008 417.646 280.045 415.642C279.081 413.539 279.028 410.633 279.884 406.927L280.687 404.072C282.185 398.562 284.219 394.054 286.787 390.548C289.356 386.942 292.406 384.237 295.938 382.434C299.47 380.631 303.323 379.729 307.497 379.729C311.35 379.729 314.454 380.38 316.808 381.682C319.163 382.985 321.036 384.688 322.427 386.791C323.818 388.795 324.942 390.949 325.798 393.253C326.655 395.557 327.511 397.811 328.367 400.015C329.223 402.118 330.293 403.922 331.578 405.424C332.969 406.927 334.842 407.879 337.197 408.279C340.514 407.879 343.244 406.476 345.384 404.072C347.632 401.567 349.451 397.811 350.843 392.802C351.378 390.999 351.699 389.346 351.806 387.843C351.913 386.24 351.859 384.688 351.645 383.185L351.806 381.983C352.983 381.582 354.107 381.332 355.177 381.232C356.354 381.131 357.478 381.081 358.548 381.081C361.117 381.081 362.883 382.133 363.846 384.237C364.809 386.24 364.809 389.095 363.846 392.802L363.044 395.657C361.545 401.067 359.512 405.575 356.943 409.181C354.374 412.787 351.324 415.492 347.792 417.295C344.367 419.098 340.568 420 336.394 420Z" fill="#8CAAEE"/>
<path d="M340.8 215.99C340.051 216.691 339.249 217.192 338.392 217.493C337.643 217.893 336.787 218.094 335.824 218.094C334.432 218.094 333.095 218.044 331.81 217.943C330.526 217.843 329.295 217.693 328.118 217.493C326.941 217.392 325.763 217.242 324.586 217.042V215.389C331.436 209.378 337.108 202.867 341.603 195.854C346.098 188.942 349.47 181.579 351.717 173.765C353.965 165.952 355.088 157.837 355.088 149.423V148.521C355.088 140.006 353.965 131.892 351.717 124.178C349.47 116.464 346.045 109.151 341.443 102.239C336.948 95.2269 331.275 88.7154 324.425 82.7048V81.0519C325.71 80.8515 326.941 80.7012 328.118 80.6011C329.295 80.4007 330.526 80.2504 331.81 80.1503C333.095 80.0501 334.432 80 335.824 80C336.787 80 337.643 80.1503 338.392 80.4508C339.249 80.7513 340.051 81.3023 340.8 82.1037C347.008 87.914 352.199 94.3253 356.373 101.338C360.654 108.35 363.811 115.813 365.845 123.727C367.878 131.641 368.895 139.856 368.895 148.371V149.423C368.895 158.038 367.878 166.302 365.845 174.216C363.811 182.13 360.654 189.593 356.373 196.606C352.199 203.618 347.008 210.08 340.8 215.99Z" fill="#E5C890"/>
<path d="M339.998 365.804C339.677 366.205 339.195 366.506 338.553 366.706C338.018 366.906 337.429 367.006 336.787 367.006C335.503 367.006 334.165 367.006 332.773 367.006C331.382 367.006 329.991 367.006 328.599 367.006C327.315 367.006 325.977 367.006 324.586 367.006V364.903C331.329 358.992 336.948 352.531 341.443 345.519C345.938 338.606 349.309 331.293 351.557 323.58C353.911 315.866 355.088 307.802 355.088 299.387V298.335C355.088 290.021 353.911 282.057 351.557 274.443C349.309 266.73 345.884 259.417 341.282 252.504C336.787 245.592 331.115 239.131 324.265 233.12V231.016C325.763 231.016 327.208 231.016 328.599 231.016C329.991 231.016 331.329 231.016 332.613 231.016C334.004 231.016 335.396 231.016 336.787 231.016C337.429 231.016 338.018 231.117 338.553 231.317C339.195 231.417 339.677 231.718 339.998 232.219C346.419 238.129 351.717 244.641 355.891 251.753C360.172 258.765 363.33 266.179 365.363 273.992C367.397 281.806 368.413 289.92 368.413 298.335V299.387C368.413 307.802 367.397 315.966 365.363 323.88C363.33 331.694 360.172 339.107 355.891 346.12C351.717 353.232 346.419 359.794 339.998 365.804Z" fill="#E5C890"/>
<path d="M241.052 82.254C241.694 81.7531 242.283 81.4526 242.818 81.3524C243.46 81.152 244.102 81.0519 244.744 81.0519C246.671 81.0519 248.597 81.0519 250.524 81.0519C252.557 81.0519 254.644 81.0519 256.785 81.0519C258.925 81.0519 261.012 81.0519 263.046 81.0519L262.725 83.4561C254.698 89.3665 247.741 95.6777 241.855 102.39C235.968 109.001 231.205 115.963 227.567 123.276C223.928 130.489 221.466 138.002 220.182 145.816L219.7 148.22C218.309 156.235 218.095 164.098 219.058 171.812C220.021 179.425 222.108 186.688 225.319 193.6C228.53 200.513 232.864 206.824 238.323 212.534L237.841 214.938C235.808 214.938 233.881 214.938 232.062 214.938C230.349 214.938 228.69 214.938 227.085 214.938C225.479 214.938 223.66 214.938 221.627 214.938C220.984 214.938 220.396 214.838 219.861 214.638C219.432 214.537 219.004 214.237 218.576 213.736C213.546 208.126 209.533 201.765 206.536 194.652C203.646 187.54 201.773 180.027 200.917 172.113C200.061 164.199 200.328 156.235 201.72 148.22L202.201 145.816C203.486 138.002 205.787 130.339 209.104 122.826C212.529 115.212 216.864 107.999 222.108 101.187C227.459 94.2752 233.774 87.9641 241.052 82.254Z" fill="#E5C890"/>
<path d="M123.376 232.669C124.554 231.868 125.624 231.317 126.587 231.016C127.55 230.616 128.621 230.415 129.798 230.415C131.403 230.415 133.009 230.516 134.614 230.716C136.219 230.816 137.825 230.966 139.43 231.167C141.036 231.367 142.534 231.567 143.925 231.768L143.444 233.571C135.31 239.481 128.192 245.793 122.092 252.504C115.991 259.216 110.961 266.279 107.001 273.692C103.041 281.105 100.259 288.818 98.6532 296.833L98.1716 298.936C96.4591 307.251 95.8705 315.365 96.4056 323.279C97.0478 331.193 98.8137 338.656 101.703 345.669C104.593 352.681 108.607 359.042 113.744 364.752L113.262 366.556C111.871 366.756 110.48 366.906 109.088 367.006C107.804 367.207 106.52 367.357 105.235 367.457C103.951 367.557 102.506 367.608 100.901 367.608C99.8305 367.608 98.8672 367.407 98.011 367.006C97.2618 366.606 96.5126 366.005 95.7635 365.203C91.1613 359.694 87.5224 353.382 84.8468 346.27C82.2781 339.157 80.7263 331.544 80.1911 323.43C79.656 315.315 80.2446 307.151 81.9571 298.936L82.4387 296.682C84.1511 288.568 86.8268 280.654 90.4657 272.94C94.2116 265.227 98.8137 257.964 104.272 251.152C109.837 244.24 116.206 238.079 123.376 232.669Z" fill="#E5C890"/>
<path d="M333.603 156.31C332.533 156.644 331.418 156.936 330.258 157.186C329.188 157.353 328.073 157.52 326.914 157.687C325.844 157.854 324.729 157.979 323.569 158.063C322.41 158.146 321.295 158.188 320.225 158.188C315.587 158.188 312.108 157.478 309.79 156.059C307.56 154.557 306.623 152.428 306.98 149.673L308.586 132.643C309.656 132.309 310.726 132.059 311.796 131.892C312.867 131.641 313.981 131.432 315.141 131.265C316.3 131.099 317.415 130.973 318.485 130.89C319.645 130.806 320.76 130.765 321.83 130.765C326.646 130.765 330.125 131.474 332.265 132.893C334.495 134.229 335.431 136.316 335.075 139.154L333.603 156.31Z" fill="#C6D0F5"/>
</svg>
